<svg width="126" height="38" viewBox="0 0 126 38" fill="none" xmlns="http://www.w3.org/2000/svg">
<path fill-rule="evenodd" clip-rule="evenodd" d="M29.3646 20.191V10.7821C29.3646 9.30529 28.1675 8.10813 26.6907 8.10813L17.2818 8.10813H16.5056C15.0288 8.10813 13.8316 6.91096 13.8316 5.43418L13.8316 3.8785C13.8317 2.40174 15.0288 1.20459 16.5056 1.20459H29.8411C33.3907 1.20459 36.2682 4.08208 36.2682 7.63164V20.9672C36.2682 22.4439 35.071 23.6411 33.5943 23.6411H32.0386C30.5618 23.6411 29.3646 22.4439 29.3646 20.9672V20.191Z" fill="#FF9E0D"/>
<path fill-rule="evenodd" clip-rule="evenodd" d="M0.0247192 16.012V17.4878C0.0247192 18.9753 1.23894 20.1892 2.72652 20.1893C3.90069 20.1894 5.01763 20.1895 5.03922 20.1895C12.1881 20.1895 17.2836 25.5182 17.2836 32.6671C17.2836 32.6879 17.2837 33.6747 17.2837 34.7464C17.2838 36.2339 18.4977 37.4483 19.9852 37.4483H21.4611H23.2958C24.5675 37.4483 25.6813 36.5535 25.8068 35.288C25.877 34.5794 25.913 33.8607 25.913 33.1336C25.913 21.2189 16.2542 11.5601 4.33943 11.5601C3.61236 11.5601 2.89369 11.596 2.1851 11.6663C0.919576 11.7917 0.0247193 12.9056 0.0247193 14.1773L0.0247192 16.012Z" fill="#5A4DFF"/>
<path d="M48.658 6.68516H50.2365V5.35125C50.2365 2.37219 51.8149 1.12721 54.1937 1.12721C54.6161 1.12721 55.1275 1.14944 55.5943 1.23837V3.55048H54.6384C53.26 3.55048 52.9265 4.26189 52.9265 5.35125V6.68516H55.5499V8.9528H52.9265V17.6677H50.2365V8.9528H48.658V6.68516Z" fill="black"/>
<path d="M55.9985 12.1884C55.9985 8.76475 58.4662 6.40818 61.8677 6.40818C65.2692 6.40818 67.7369 8.76475 67.7369 12.1884C67.7369 15.6121 65.2692 17.9687 61.8677 17.9687C58.4662 17.9687 55.9985 15.6121 55.9985 12.1884ZM58.7108 12.1884C58.7108 14.1893 60.0002 15.5455 61.8677 15.5455C63.7352 15.5455 65.0246 14.1893 65.0246 12.1884C65.0246 10.1876 63.7352 8.83145 61.8677 8.83145C60.0002 8.83145 58.7108 10.1876 58.7108 12.1884Z" fill="black"/>
<path d="M75.9695 6.56381V9.076H74.969C73.0126 9.076 71.7899 10.1209 71.7899 12.2551V17.5908H69.0776V6.6305H71.6343L71.7899 8.23119C72.2568 7.14183 73.3017 6.40818 74.769 6.40818C75.1469 6.40818 75.5248 6.45265 75.9695 6.56381Z" fill="black"/>
<path d="M80.65 17.6677L77.0929 6.68516H79.9164L81.3614 11.3983C81.606 12.2653 81.8283 13.2213 82.0284 14.244C82.2285 13.1768 82.4286 12.4877 82.7843 11.3983L84.296 6.68516H87.0528L88.5201 11.3983C88.6535 11.8429 89.0981 13.4881 89.2315 14.2217C89.4093 13.3992 89.765 12.0875 89.9651 11.3983L91.4324 6.68516H94.3003L90.4987 17.6677H87.9643L86.4525 12.9101C86.0079 11.465 85.7633 10.4201 85.6744 9.86431C85.5632 10.3756 85.3631 11.1538 84.8074 12.9545L83.2956 17.6677H80.65Z" fill="black"/>
<path d="M98.264 17.9567C95.9296 17.9567 94.5068 16.6005 94.5068 14.533C94.5068 12.5099 95.9741 11.2427 98.5752 11.0426L101.866 10.798V10.5535C101.866 9.06396 100.976 8.4637 99.5979 8.4637C97.9972 8.4637 97.1079 9.13066 97.1079 10.2867H94.7958C94.7958 7.90791 96.7522 6.35168 99.7313 6.35168C102.688 6.35168 104.511 7.95237 104.511 10.9981V17.6677H102.132L101.932 16.0447C101.465 17.1786 99.9758 17.9567 98.264 17.9567ZM99.1532 15.9114C100.821 15.9114 101.888 14.9109 101.888 13.2213V12.6433L99.5979 12.8211C97.9083 12.9768 97.2635 13.5326 97.2635 14.4218C97.2635 15.4223 97.9305 15.9114 99.1532 15.9114Z" fill="black"/>
<path d="M113.087 6.6407V9.15289H112.087C110.131 9.15289 108.908 10.1978 108.908 12.332V17.6677H106.196V6.70739H108.752L108.908 8.30808C109.375 7.21872 110.42 6.48507 111.887 6.48507C112.265 6.48507 112.643 6.52954 113.087 6.6407Z" fill="black"/>
<path d="M118.848 17.9567C115.668 17.9567 113.69 15.6223 113.69 12.2209C113.69 8.79717 115.691 6.35167 119.003 6.35167C120.537 6.35167 121.893 6.99639 122.583 8.08575V1.1272H125.273V17.6677H122.783L122.605 15.9558C121.938 17.223 120.515 17.9567 118.848 17.9567ZM119.448 15.4667C121.338 15.4667 122.56 14.1106 122.56 12.1319C122.56 10.1533 121.338 8.77494 119.448 8.77494C117.558 8.77494 116.402 10.1755 116.402 12.1319C116.402 14.0883 117.558 15.4667 119.448 15.4667Z" fill="black"/>
<path d="M54.1442 37.4601C50.9183 37.4601 48.658 35.112 48.658 31.7544C48.658 28.353 50.8744 26.0049 54.0564 26.0049C57.3042 26.0049 59.3671 28.1774 59.3671 31.5569V32.3689L51.2036 32.3908C51.4011 34.3 52.4106 35.2656 54.1881 35.2656C55.6584 35.2656 56.624 34.695 56.9312 33.6636H59.4109C58.9501 36.0337 56.9751 37.4601 54.1442 37.4601ZM54.0784 28.1994C52.4983 28.1994 51.5328 29.0552 51.2694 30.6791H56.7117C56.7117 29.1869 55.6803 28.1994 54.0784 28.1994Z" fill="black"/>
<path d="M64.2554 37.4601C61.9512 37.4601 60.5468 36.1214 60.5468 34.0806C60.5468 32.0836 61.9951 30.8328 64.5626 30.6353L67.8105 30.3939V30.1525C67.8105 28.6822 66.9327 28.0897 65.5721 28.0897C63.9921 28.0897 63.1143 28.748 63.1143 29.8891H60.832C60.832 27.541 62.7632 26.0049 65.7038 26.0049C68.6224 26.0049 70.4219 27.5849 70.4219 30.5914V37.1748H68.0738L67.8763 35.5728C67.4155 36.692 65.9452 37.4601 64.2554 37.4601ZM65.1332 35.4411C66.7791 35.4411 67.8324 34.4536 67.8324 32.7858V32.2153L65.5721 32.3908C63.9043 32.5444 63.2679 33.0931 63.2679 33.9709C63.2679 34.9584 63.9262 35.4411 65.1332 35.4411Z" fill="black"/>
<path d="M78.7118 26.2949V28.7746H77.7243C75.7932 28.7746 74.5862 29.806 74.5862 31.9127V37.1795H71.909V26.3607H74.4326L74.5862 27.9407C75.0471 26.8654 76.0785 26.1413 77.5268 26.1413C77.8999 26.1413 78.273 26.1852 78.7118 26.2949Z" fill="black"/>
<path d="M84.5318 37.1748H81.8545V28.5724H79.7698V26.3341H81.8545V22.9546H84.5318V26.3341H86.6385V28.5724H84.5318V37.1748Z" fill="black"/>
<path d="M90.349 37.1748H87.6717V20.8479H90.3709V27.7385C91.0512 26.6852 92.324 26.0049 93.8821 26.0049C96.5593 26.0049 97.9638 27.6947 97.9638 30.5036V37.1748H95.2865V31.14C95.2865 29.3186 94.3868 28.4408 93.0262 28.4408C91.3365 28.4408 90.349 29.6258 90.349 31.2497V37.1748Z" fill="black"/>
</svg>
