<svg version="1.1" id="Layer_1" xmlns="http://www.w3.org/2000/svg" xmlns:xlink="http://www.w3.org/1999/xlink" x="0px" y="0px"
	 width="100%" viewBox="0 0 200 200" enable-background="new 0 0 200 200" xml:space="preserve">
<path fill="#FEFEFD" opacity="1.000000" stroke="none" 
	d="
M116.000000,201.000000 
	C77.357201,201.000000 39.214397,201.000000 1.035799,201.000000 
	C1.035799,134.398911 1.035799,67.797783 1.035799,1.098330 
	C67.559296,1.098330 134.118790,1.098330 200.839142,1.098330 
	C200.839142,67.666351 200.839142,134.333145 200.839142,201.000000 
	C172.798065,201.000000 144.649033,201.000000 116.000000,201.000000 
M136.628326,194.004898 
	C136.883652,193.723801 137.138992,193.442703 137.759766,193.058548 
	C137.759766,193.058548 137.992432,192.758499 138.603882,192.516235 
	C139.456039,190.693802 140.308197,188.871368 141.521118,186.621109 
	C141.579636,186.075348 141.638153,185.529587 141.965332,184.158630 
	C141.925201,177.437515 141.885056,170.716400 141.929443,163.330109 
	C141.840897,162.894836 141.752350,162.459564 141.832245,161.244354 
	C141.478241,159.176392 141.124222,157.108444 140.800781,154.327103 
	C140.636993,153.887177 140.473190,153.447250 140.471512,152.272446 
	C137.327347,142.827179 134.183182,133.381897 131.001129,123.989845 
	C131.001129,123.989845 131.066147,123.983551 131.023788,123.278221 
	C130.018982,121.509201 129.014175,119.740173 127.994820,117.998444 
	C127.994820,117.998444 128.025436,117.995056 127.942383,117.293945 
	C126.326164,114.787560 124.709946,112.281181 122.976036,109.343819 
	C122.976036,109.343819 122.662071,109.025978 122.547455,108.432014 
	C121.779167,107.538071 121.010880,106.644127 120.167221,105.836021 
	C120.167221,105.836021 120.281395,105.839508 120.201172,105.245331 
	C119.801842,104.825363 119.402519,104.405396 118.998238,104.000473 
	C118.998238,104.000473 119.013466,103.998047 118.891655,103.372070 
	C118.041275,102.477036 117.190895,101.582008 116.252365,100.657204 
	C116.252365,100.657204 116.313622,100.727226 116.166931,100.216042 
	C115.875870,100.035522 115.584808,99.854996 115.286736,99.825142 
	C115.286736,99.825142 115.376686,99.704063 115.271149,99.069061 
	C114.540329,98.320251 113.809509,97.571449 112.946854,96.395561 
	C112.790726,96.116287 112.555672,95.945885 112.040077,95.283363 
	C111.410027,94.753380 110.779976,94.223396 109.856873,93.121941 
	C107.970444,91.381447 106.084015,89.640953 103.972733,87.303604 
	C102.983223,86.573158 101.993713,85.842712 100.789238,84.848679 
	C100.789238,84.848679 100.455643,84.782333 100.179131,84.182716 
	C99.133896,83.441414 98.088661,82.700111 96.710732,81.375534 
	C94.670677,79.936089 92.683441,78.414062 90.582413,77.069931 
	C68.948441,63.229733 45.411648,57.025230 19.756630,59.828648 
	C12.663796,60.603710 8.376842,65.428383 8.113976,72.513519 
	C7.885682,78.666847 7.878242,84.842606 8.113978,90.995384 
	C8.423440,99.072395 14.069637,104.606773 22.197487,104.949051 
	C27.019329,105.152100 31.859056,104.904633 36.684128,105.062271 
	C46.551205,105.384628 55.913551,107.825478 65.196030,112.676521 
	C68.806839,115.095795 72.417641,117.515068 76.010269,119.999039 
	C76.010269,119.999039 76.069702,119.967651 76.292809,120.501068 
	C76.777542,120.782082 77.262283,121.063095 77.783669,121.210526 
	C77.783669,121.210526 77.656914,121.266396 77.778694,121.818062 
	C78.200836,122.161392 78.622971,122.504730 79.264503,123.344498 
	C79.558334,123.544579 79.852165,123.744652 80.299957,124.503418 
	C80.873924,124.996857 81.447891,125.490295 82.000000,125.999313 
	C82.000000,125.999313 82.018311,125.978638 82.129082,126.617805 
	C83.021400,127.503403 83.913719,128.388992 84.820168,129.139175 
	C84.820168,129.139175 84.694641,129.191864 84.762955,129.857391 
	C85.445351,130.704300 86.127747,131.551193 86.904953,132.903381 
	C87.223236,133.286957 87.541519,133.670532 87.968903,134.786102 
	C90.369987,140.160049 92.771072,145.533981 95.163200,151.642365 
	C95.337326,152.094635 95.511444,152.546890 95.474342,153.765213 
	C96.100182,162.426804 96.653046,171.094681 97.397217,179.746094 
	C97.614830,182.275986 98.376923,184.759033 98.897392,187.796921 
	C99.179848,188.232361 99.462303,188.667786 99.838844,189.808044 
	C102.428314,194.815399 106.912430,196.597153 112.164230,196.766708 
	C117.140076,196.927368 122.133675,196.970322 127.102623,196.724579 
	C129.473007,196.607346 131.804337,195.700592 134.055847,195.113251 
	C134.055847,195.113251 134.090744,195.211990 134.709930,195.175964 
	C135.181274,194.817688 135.652603,194.459396 136.045120,194.041107 
	C136.045120,194.041107 136.063034,194.138519 136.628326,194.004898 
M141.500000,5.888769 
	C125.515694,5.900681 109.522743,5.631679 93.553162,6.122570 
	C89.574448,6.244872 84.511543,7.786771 82.049057,10.549693 
	C79.421028,13.498359 78.622292,18.596256 78.173927,22.876276 
	C76.492188,38.929832 85.607124,43.331593 97.777557,42.888702 
	C112.743164,42.344093 127.743820,42.717796 142.729050,42.771854 
	C153.432907,42.810467 158.496140,48.016491 158.497726,58.848415 
	C158.499878,73.334221 158.438004,87.820152 158.485336,102.305756 
	C158.497803,106.123871 158.480759,109.991989 159.060440,113.747108 
	C160.024307,119.991219 165.123505,124.426880 171.406021,124.887703 
	C174.057205,125.082169 176.731583,125.013657 179.394547,124.984741 
	C188.587662,124.884956 194.558395,119.371277 194.629272,110.126915 
	C194.809265,86.651291 195.064835,63.165295 194.567123,39.698780 
	C194.139359,19.530989 179.677399,6.065780 159.483414,5.900407 
	C153.822617,5.854050 148.161163,5.890289 141.500000,5.888769 
z"/>
<path fill="#5C4FFC" opacity="1.000000" stroke="none" 
	d="
M141.663803,162.024292 
	C141.752350,162.459564 141.840897,162.894836 141.622070,163.981262 
	C141.442017,171.416229 141.569351,178.200027 141.696671,184.983826 
	C141.638153,185.529587 141.579636,186.075348 141.006958,186.957397 
	C139.659332,189.115295 138.825882,190.936905 137.992432,192.758499 
	C137.992432,192.758499 137.759766,193.058548 137.276810,193.145966 
	C136.550247,193.535080 136.306641,193.836807 136.063034,194.138519 
	C136.063034,194.138519 136.045120,194.041107 135.760071,194.056641 
	C135.013580,194.452118 134.552155,194.832047 134.090744,195.211975 
	C134.090744,195.211990 134.055847,195.113251 133.625244,195.072296 
	C130.366959,195.027344 127.537956,195.078140 124.711876,195.009125 
	C115.978760,194.795914 106.627213,197.151596 99.744759,189.103226 
	C99.462303,188.667786 99.179848,188.232361 98.941696,187.040619 
	C98.984352,179.348068 99.368652,172.382126 98.838051,165.486572 
	C98.513458,161.268219 96.784065,157.157959 95.685577,152.999161 
	C95.511444,152.546890 95.337326,152.094635 95.409332,151.037979 
	C94.978287,144.059296 92.242256,138.664902 87.859795,134.054108 
	C87.541519,133.670532 87.223236,133.286957 86.903053,132.282227 
	C86.165649,130.837997 85.430145,130.014923 84.694641,129.191864 
	C84.694641,129.191864 84.820168,129.139175 84.778084,128.860931 
	C83.830101,127.714661 82.924210,126.846649 82.018311,125.978638 
	C82.018311,125.978638 82.000000,125.999313 81.982819,125.677750 
	C81.359093,124.885704 80.752541,124.415215 80.145996,123.944725 
	C79.852165,123.744652 79.558334,123.544579 79.114952,122.797424 
	C78.529236,121.922363 78.093079,121.594376 77.656914,121.266396 
	C77.656914,121.266396 77.783669,121.210526 77.726807,120.966202 
	C77.136536,120.470467 76.603119,120.219055 76.069702,119.967651 
	C76.069702,119.967651 76.010269,119.999039 75.980614,119.623169 
	C72.920113,115.795662 70.003212,112.165314 64.792297,112.133163 
	C55.913551,107.825478 46.551205,105.384628 36.684128,105.062271 
	C31.859056,104.904633 27.019329,105.152100 22.197487,104.949051 
	C14.069637,104.606773 8.423440,99.072395 8.113978,90.995384 
	C7.878242,84.842606 7.885682,78.666847 8.113976,72.513519 
	C8.376842,65.428383 12.663796,60.603710 19.756630,59.828648 
	C45.411648,57.025230 68.948441,63.229733 90.582413,77.069931 
	C92.683441,78.414062 94.670677,79.936089 96.896568,82.035812 
	C98.206818,83.391502 99.331230,84.086922 100.455643,84.782333 
	C100.455643,84.782333 100.789238,84.848679 100.931595,85.321609 
	C102.115173,86.496506 103.156380,87.198479 104.197586,87.900452 
	C106.084015,89.640953 107.970444,91.381447 109.993744,93.774895 
	C110.834305,94.913345 111.537994,95.398849 112.241692,95.884346 
	C112.555672,95.945885 112.790726,96.116287 113.008606,96.962112 
	C113.839134,98.253807 114.607910,98.978935 115.376686,99.704063 
	C115.376686,99.704063 115.286736,99.825142 115.302460,100.045174 
	C115.650002,100.419212 115.981812,100.573219 116.313622,100.727226 
	C116.313622,100.727226 116.252365,100.657204 116.211304,101.032944 
	C117.117989,102.271805 118.065727,103.134926 119.013466,103.998047 
	C119.013466,103.998047 118.998238,104.000473 119.015778,104.310760 
	C119.449348,105.027206 119.865372,105.433357 120.281395,105.839508 
	C120.281395,105.839508 120.167221,105.836021 120.144073,106.133011 
	C120.967979,107.295326 121.815025,108.160652 122.662071,109.025978 
	C122.662071,109.025978 122.976036,109.343819 123.024857,109.937103 
	C124.724266,113.018608 126.374855,115.506828 128.025436,117.995056 
	C128.025436,117.995056 127.994820,117.998444 127.989670,118.350876 
	C129.011734,120.463394 130.038940,122.223473 131.066147,123.983551 
	C131.066147,123.983551 131.001129,123.989845 130.999329,124.355606 
	C133.218597,131.605545 135.424820,138.494583 137.668472,145.371384 
	C138.503723,147.931412 139.426514,150.462845 140.309387,153.007324 
	C140.473190,153.447250 140.636993,153.887177 140.553391,154.968719 
	C140.758591,157.748337 141.211197,159.886307 141.663803,162.024292 
z"/>
<path fill="#FDA012" opacity="1.000000" stroke="none" 
	d="
M142.000000,5.888705 
	C148.161163,5.890289 153.822617,5.854050 159.483414,5.900407 
	C179.677399,6.065780 194.139359,19.530989 194.567123,39.698780 
	C195.064835,63.165295 194.809265,86.651291 194.629272,110.126915 
	C194.558395,119.371277 188.587662,124.884956 179.394547,124.984741 
	C176.731583,125.013657 174.057205,125.082169 171.406021,124.887703 
	C165.123505,124.426880 160.024307,119.991219 159.060440,113.747108 
	C158.480759,109.991989 158.497803,106.123871 158.485336,102.305756 
	C158.438004,87.820152 158.499878,73.334221 158.497726,58.848415 
	C158.496140,48.016491 153.432907,42.810467 142.729050,42.771854 
	C127.743820,42.717796 112.743164,42.344093 97.777557,42.888702 
	C85.607124,43.331593 76.492188,38.929832 78.173927,22.876276 
	C78.622292,18.596256 79.421028,13.498359 82.049057,10.549693 
	C84.511543,7.786771 89.574448,6.244872 93.553162,6.122570 
	C109.522743,5.631679 125.515694,5.900681 142.000000,5.888705 
z"/>
<path fill="#6D61DE" opacity="1.000000" stroke="none" 
	d="
M99.791801,189.455627 
	C106.627213,197.151596 115.978760,194.795914 124.711876,195.009125 
	C127.537956,195.078140 130.366959,195.027344 133.673981,195.091415 
	C131.804337,195.700592 129.473007,196.607346 127.102623,196.724579 
	C122.133675,196.970322 117.140076,196.927368 112.164230,196.766708 
	C106.912430,196.597153 102.428314,194.815399 99.791801,189.455627 
z"/>
<path fill="#6D61DE" opacity="1.000000" stroke="none" 
	d="
M95.579956,153.382187 
	C96.784065,157.157959 98.513458,161.268219 98.838051,165.486572 
	C99.368652,172.382126 98.984352,179.348068 98.937729,186.773926 
	C98.376923,184.759033 97.614830,182.275986 97.397217,179.746094 
	C96.653046,171.094681 96.100182,162.426804 95.579956,153.382187 
z"/>
<path fill="#6D61DE" opacity="1.000000" stroke="none" 
	d="
M140.390442,152.639893 
	C139.426514,150.462845 138.503723,147.931412 137.668472,145.371384 
	C135.424820,138.494583 133.218597,131.605545 131.018280,124.328995 
	C134.183182,133.381897 137.327347,142.827179 140.390442,152.639893 
z"/>
<path fill="#6D61DE" opacity="1.000000" stroke="none" 
	d="
M141.830994,184.571228 
	C141.569351,178.200027 141.442017,171.416229 141.579803,164.313858 
	C141.885056,170.716400 141.925201,177.437515 141.830994,184.571228 
z"/>
<path fill="#6D61DE" opacity="1.000000" stroke="none" 
	d="
M87.914352,134.420105 
	C92.242256,138.664902 94.978287,144.059296 95.413818,150.670761 
	C92.771072,145.533981 90.369987,140.160049 87.914352,134.420105 
z"/>
<path fill="#6D61DE" opacity="1.000000" stroke="none" 
	d="
M64.994164,112.404846 
	C70.003212,112.165314 72.920113,115.795662 75.989700,119.590813 
	C72.417641,117.515068 68.806839,115.095795 64.994164,112.404846 
z"/>
<path fill="#6D61DE" opacity="1.000000" stroke="none" 
	d="
M127.983910,117.644501 
	C126.374855,115.506828 124.724266,113.018608 123.083710,110.152588 
	C124.709946,112.281181 126.326164,114.787560 127.983910,117.644501 
z"/>
<path fill="#6D61DE" opacity="1.000000" stroke="none" 
	d="
M141.748016,161.634323 
	C141.211197,159.886307 140.758591,157.748337 140.538101,155.325409 
	C141.124222,157.108444 141.478241,159.176392 141.748016,161.634323 
z"/>
<path fill="#6D61DE" opacity="1.000000" stroke="none" 
	d="
M138.298157,192.637360 
	C138.825882,190.936905 139.659332,189.115295 140.826569,187.171326 
	C140.308197,188.871368 139.456039,190.693802 138.298157,192.637360 
z"/>
<path fill="#6D61DE" opacity="1.000000" stroke="none" 
	d="
M131.044968,123.630890 
	C130.038940,122.223473 129.011734,120.463394 127.996948,118.337234 
	C129.014175,119.740173 130.018982,121.509201 131.044968,123.630890 
z"/>
<path fill="#6D61DE" opacity="1.000000" stroke="none" 
	d="
M118.952560,103.685059 
	C118.065727,103.134926 117.117989,102.271805 116.255386,101.047836 
	C117.190895,101.582008 118.041275,102.477036 118.952560,103.685059 
z"/>
<path fill="#6D61DE" opacity="1.000000" stroke="none" 
	d="
M104.085159,87.602020 
	C103.156380,87.198479 102.115173,86.496506 101.039078,85.453400 
	C101.993713,85.842712 102.983223,86.573158 104.085159,87.602020 
z"/>
<path fill="#6D61DE" opacity="1.000000" stroke="none" 
	d="
M100.317383,84.482529 
	C99.331230,84.086922 98.206818,83.391502 97.062912,82.327446 
	C98.088661,82.700111 99.133896,83.441414 100.317383,84.482529 
z"/>
<path fill="#6D61DE" opacity="1.000000" stroke="none" 
	d="
M122.604767,108.728996 
	C121.815025,108.160652 120.967979,107.295326 120.181755,106.090096 
	C121.010880,106.644127 121.779167,107.538071 122.604767,108.728996 
z"/>
<path fill="#6D61DE" opacity="1.000000" stroke="none" 
	d="
M82.073700,126.298218 
	C82.924210,126.846649 83.830101,127.714661 84.771019,128.928619 
	C83.913719,128.388992 83.021400,127.503403 82.073700,126.298218 
z"/>
<path fill="#6D61DE" opacity="1.000000" stroke="none" 
	d="
M84.728798,129.524628 
	C85.430145,130.014923 86.165649,130.837997 86.855652,132.029572 
	C86.127747,131.551193 85.445351,130.704300 84.728798,129.524628 
z"/>
<path fill="#6D61DE" opacity="1.000000" stroke="none" 
	d="
M115.323914,99.386566 
	C114.607910,98.978935 113.839134,98.253807 113.074524,97.175659 
	C113.809509,97.571449 114.540329,98.320251 115.323914,99.386566 
z"/>
<path fill="#6D61DE" opacity="1.000000" stroke="none" 
	d="
M112.140884,95.583855 
	C111.537994,95.398849 110.834305,94.913345 110.140266,94.060623 
	C110.779976,94.223396 111.410027,94.753380 112.140884,95.583855 
z"/>
<path fill="#6D61DE" opacity="1.000000" stroke="none" 
	d="
M80.222977,124.224075 
	C80.752541,124.415215 81.359093,124.885704 81.993744,125.669960 
	C81.447891,125.490295 80.873924,124.996857 80.222977,124.224075 
z"/>
<path fill="#6D61DE" opacity="1.000000" stroke="none" 
	d="
M76.181259,120.234360 
	C76.603119,120.219055 77.136536,120.470467 77.708481,121.032990 
	C77.262283,121.063095 76.777542,120.782082 76.181259,120.234360 
z"/>
<path fill="#6D61DE" opacity="1.000000" stroke="none" 
	d="
M77.717804,121.542229 
	C78.093079,121.594376 78.529236,121.922363 79.005257,122.549210 
	C78.622971,122.504730 78.200836,122.161392 77.717804,121.542229 
z"/>
<path fill="#6D61DE" opacity="1.000000" stroke="none" 
	d="
M120.241287,105.542419 
	C119.865372,105.433357 119.449348,105.027206 119.018257,104.303238 
	C119.402519,104.405396 119.801842,104.825363 120.241287,105.542419 
z"/>
<path fill="#6D61DE" opacity="1.000000" stroke="none" 
	d="
M134.400330,195.193970 
	C134.552155,194.832047 135.013580,194.452118 135.799469,194.086639 
	C135.652603,194.459396 135.181274,194.817688 134.400330,195.193970 
z"/>
<path fill="#6D61DE" opacity="1.000000" stroke="none" 
	d="
M116.240280,100.471634 
	C115.981812,100.573219 115.650002,100.419212 115.305969,99.969833 
	C115.584808,99.854996 115.875870,100.035522 116.240280,100.471634 
z"/>
<path fill="#6D61DE" opacity="1.000000" stroke="none" 
	d="
M136.345673,194.071716 
	C136.306641,193.836807 136.550247,193.535080 137.094086,193.197479 
	C137.138992,193.442703 136.883652,193.723801 136.345673,194.071716 
z"/>
</svg>